name C:/MyDriveSym/Projects/mobilecap/Data\Session20210910_0002\mocap\ForceDataProcessed\walkingTS1_forces.mot
datacolumns 19
datarows 27
range 1.22200000 1.23500000
endheader 
time	R_ground_force_vx	R_ground_force_vy	R_ground_force_vz	R_ground_force_px	R_ground_force_py	R_ground_force_pz	R_ground_torque_x	R_ground_torque_y	R_ground_torque_z	L_ground_force_vx	L_ground_force_vy	L_ground_force_vz	L_ground_force_px	L_ground_force_py	L_ground_force_pz	L_ground_torque_x	L_ground_torque_y	L_ground_torque_z	
          1.22200000	          0.00000000	          0.00000000	          0.00000000	          1.24618600	          0.00000000	         -0.27670900	          0.00000000	          0.00000000	          0.00000000	         70.31136400	        900.53606900	         51.60092100	          1.00256200	          0.00600000	         -0.46626400	          0.00000000	          1.13231100	          0.00000000	
          1.22250000	          0.00000000	          0.00000000	          0.00000000	          1.24720600	          0.00000000	         -0.27677900	          0.00000000	          0.00000000	          0.00000000	         70.71613300	        900.49954000	         51.67740500	          1.00258300	          0.00600000	         -0.46627500	          0.00000000	          1.13141800	          0.00000000	
          1.22300000	          0.00000000	          0.00000000	          0.00000000	          1.24822600	          0.00000000	         -0.27684800	          0.00000000	          0.00000000	          0.00000000	         71.12140100	        900.46237500	         51.75383600	          1.00260400	          0.00600000	         -0.46628600	          0.00000000	          1.13049700	          0.00000000	
          1.22350000	          0.00000000	          0.00000000	          0.00000000	          1.24924700	          0.00000000	         -0.27691800	          0.00000000	          0.00000000	          0.00000000	         71.52716500	        900.42457600	         51.83021200	          1.00262600	          0.00600000	         -0.46629700	          0.00000000	          1.12954500	          0.00000000	
          1.22400000	          0.00000000	          0.00000000	          0.00000000	          1.25026700	          0.00000000	         -0.27698800	          0.00000000	          0.00000000	          0.00000000	         71.93342200	        900.38614600	         51.90652800	          1.00264700	          0.00600000	         -0.46630800	          0.00000000	          1.12856400	          0.00000000	
          1.22450000	          0.00000000	          0.00000000	          0.00000000	          1.25128700	          0.00000000	         -0.27705700	          0.00000000	          0.00000000	          0.00000000	         72.34016900	        900.34708500	         51.98278100	          1.00266800	          0.00600000	         -0.46631900	          0.00000000	          1.12755400	          0.00000000	
          1.22500000	          0.00000000	          0.00000000	          0.00000000	          1.25230700	          0.00000000	         -0.27712700	          0.00000000	          0.00000000	          0.00000000	         72.74740200	        900.30739600	         52.05896500	          1.00268900	          0.00600000	         -0.46633000	          0.00000000	          1.12651300	          0.00000000	
          1.22550000	          0.00000000	          0.00000000	          0.00000000	          1.25332800	          0.00000000	         -0.27719700	          0.00000000	          0.00000000	          0.00000000	         73.15511900	        900.26708000	         52.13507800	          1.00271100	          0.00600000	         -0.46634100	          0.00000000	          1.12544300	          0.00000000	
          1.22600000	          0.00000000	          0.00000000	          0.00000000	          1.25434800	          0.00000000	         -0.27726600	          0.00000000	          0.00000000	          0.00000000	         73.56331500	        900.22613600	         52.21111400	          1.00273200	          0.00600000	         -0.46635200	          0.00000000	          1.12434200	          0.00000000	
          1.22650000	          0.00000000	          0.00000000	          0.00000000	          1.25536800	          0.00000000	         -0.27733600	          0.00000000	          0.00000000	          0.00000000	         73.97198800	        900.18456600	         52.28707000	          1.00275400	          0.00600000	         -0.46636200	          0.00000000	          1.12321100	          0.00000000	
          1.22700000	          0.00000000	          0.00000000	          0.00000000	          1.25638900	          0.00000000	         -0.27740600	          0.00000000	          0.00000000	          0.00000000	         74.38113300	        900.14236900	         52.36294200	          1.00277500	          0.00600000	         -0.46637300	          0.00000000	          1.12204900	          0.00000000	
          1.22750000	          0.00000000	          0.00000000	          0.00000000	          1.25740900	          0.00000000	         -0.27747500	          0.00000000	          0.00000000	          0.00000000	         74.79074900	        900.09954600	         52.43872500	          1.00279700	          0.00600000	         -0.46638400	          0.00000000	          1.12085600	          0.00000000	
          1.22800000	          0.00000000	          0.00000000	          0.00000000	          1.25842900	          0.00000000	         -0.27754500	          0.00000000	          0.00000000	          0.00000000	         75.20083000	        900.05609400	         52.51441400	          1.00281800	          0.00600000	         -0.46639400	          0.00000000	          1.11963300	          0.00000000	
          1.22850000	          0.00000000	          0.00000000	          0.00000000	          1.25944900	          0.00000000	         -0.27761500	          0.00000000	          0.00000000	          0.00000000	         75.61137500	        900.01201400	         52.59000700	          1.00284000	          0.00600000	         -0.46640500	          0.00000000	          1.11837800	          0.00000000	
          1.22900000	          0.00000000	          0.00000000	          0.00000000	          1.26047000	          0.00000000	         -0.27768400	          0.00000000	          0.00000000	          0.00000000	         76.02237800	        899.96730300	         52.66549700	          1.00286200	          0.00600000	         -0.46641500	          0.00000000	          1.11709300	          0.00000000	
          1.22950000	          0.00000000	          0.00000000	          0.00000000	          1.26149000	          0.00000000	         -0.27775400	          0.00000000	          0.00000000	          0.00000000	         76.43383700	        899.92196100	         52.74088200	          1.00288400	          0.00600000	         -0.46642600	          0.00000000	          1.11577500	          0.00000000	
          1.23000000	          0.00000000	          0.00000000	          0.00000000	          1.26251000	          0.00000000	         -0.27782300	          0.00000000	          0.00000000	          0.00000000	         76.84574800	        899.87598400	         52.81615600	          1.00290600	          0.00600000	         -0.46643600	          0.00000000	          1.11442700	          0.00000000	
          1.23050000	          0.00000000	          0.00000000	          0.00000000	          1.26353100	          0.00000000	         -0.27789300	          0.00000000	          0.00000000	          0.00000000	         77.25810800	        899.82937100	         52.89131500	          1.00292700	          0.00600000	         -0.46644600	          0.00000000	          1.11304600	          0.00000000	
          1.23100000	          0.00000000	          0.00000000	          0.00000000	          1.26455100	          0.00000000	         -0.27796300	          0.00000000	          0.00000000	          0.00000000	         77.67091100	        899.78211800	         52.96635500	          1.00294900	          0.00600000	         -0.46645600	          0.00000000	          1.11163400	          0.00000000	
          1.23150000	          0.00000000	          0.00000000	          0.00000000	          1.26557100	          0.00000000	         -0.27803200	          0.00000000	          0.00000000	          0.00000000	         78.08415600	        899.73422200	         53.04127000	          1.00297100	          0.00600000	         -0.46646700	          0.00000000	          1.11018900	          0.00000000	
          1.23200000	          0.00000000	          0.00000000	          0.00000000	          1.26659100	          0.00000000	         -0.27810200	          0.00000000	          0.00000000	          0.00000000	         78.49783800	        899.68568000	         53.11605800	          1.00299400	          0.00600000	         -0.46647700	          0.00000000	          1.10871200	          0.00000000	
          1.23250000	          0.00000000	          0.00000000	          0.00000000	          1.26761200	          0.00000000	         -0.27817200	          0.00000000	          0.00000000	          0.00000000	         78.91195300	        899.63648700	         53.19071200	          1.00301600	          0.00600000	         -0.46648700	          0.00000000	          1.10720300	          0.00000000	
          1.23300000	          0.00000000	          0.00000000	          0.00000000	          1.26863200	          0.00000000	         -0.27824100	          0.00000000	          0.00000000	          0.00000000	         79.32649700	        899.58664000	         53.26522900	          1.00303800	          0.00600000	         -0.46649700	          0.00000000	          1.10566100	          0.00000000	
          1.23350000	          0.00000000	          0.00000000	          0.00000000	          1.26965200	          0.00000000	         -0.27831100	          0.00000000	          0.00000000	          0.00000000	         79.74146600	        899.53613300	         53.33960300	          1.00306000	          0.00600000	         -0.46650700	          0.00000000	          1.10408700	          0.00000000	
          1.23400000	          0.00000000	          0.00000000	          0.00000000	          1.27067300	          0.00000000	         -0.27838100	          0.00000000	          0.00000000	          0.00000000	         80.15685700	        899.48496100	         53.41383000	          1.00308300	          0.00600000	         -0.46651600	          0.00000000	          1.10247900	          0.00000000	
          1.23450000	          0.00000000	          0.00000000	          0.00000000	          1.27169300	          0.00000000	         -0.27845000	          0.00000000	          0.00000000	          0.00000000	         80.57266500	        899.43311900	         53.48790600	          1.00310500	          0.00600000	         -0.46652600	          0.00000000	          1.10083900	          0.00000000	
          1.23500000	          0.00000000	          0.00000000	          0.00000000	          1.27271300	          0.00000000	         -0.27852000	          0.00000000	          0.00000000	          0.00000000	         80.98888700	        899.38060200	         53.56182500	          1.00312800	          0.00600000	         -0.46653600	          0.00000000	          1.09916500	          0.00000000	
